<?xml version="1.0" encoding="UTF-8"?>
<svg xmlns="http://www.w3.org/2000/svg" width="722.70" height="578.16" viewBox="0,0,722.70,578.16">
<desc>R SVG Plot!</desc>
<rect width="100%" height="100%" style="fill:#FFFFFF"/>
<circle cx="348.11" cy="283.99" r="6.25" style="stroke-width:1;stroke:#5E7AA1;fill:#5E7AA1;stroke-opacity:1.000000;fill-opacity:1.000000" />
<circle cx="187.71" cy="82.62" r="6.25" style="stroke-width:1;stroke:#2AE3BC;fill:#2AE3BC;stroke-opacity:1.000000;fill-opacity:1.000000" />
<circle cx="256.31" cy="83.20" r="6.25" style="stroke-width:1;stroke:#40E36F;fill:#40E36F;stroke-opacity:1.000000;fill-opacity:1.000000" />
<circle cx="229.59" cy="52.74" r="6.25" style="stroke-width:1;stroke:#38F369;fill:#38F369;stroke-opacity:1.000000;fill-opacity:1.000000" />
<circle cx="341.82" cy="251.34" r="6.25" style="stroke-width:1;stroke:#5C8B9B;fill:#5C8B9B;stroke-opacity:1.000000;fill-opacity:1.000000" />
<circle cx="364.44" cy="273.60" r="6.25" style="stroke-width:1;stroke:#647F7C;fill:#647F7C;stroke-opacity:1.000000;fill-opacity:1.000000" />
<circle cx="665.64" cy="267.36" r="6.25" style="stroke-width:1;stroke:#C68300;fill:#C68300;stroke-opacity:1.000000;fill-opacity:1.000000" />
<circle cx="549.91" cy="291.78" r="6.25" style="stroke-width:1;stroke:#A07675;fill:#A07675;stroke-opacity:1.000000;fill-opacity:1.000000" />
<circle cx="599.55" cy="297.06" r="6.25" style="stroke-width:1;stroke:#B173AF;fill:#B173AF;stroke-opacity:1.000000;fill-opacity:1.000000" />
<circle cx="622.80" cy="290.11" r="6.25" style="stroke-width:1;stroke:#B87742;fill:#B87742;stroke-opacity:1.000000;fill-opacity:1.000000" />
<circle cx="631.68" cy="311.42" r="6.25" style="stroke-width:1;stroke:#BB6CA6;fill:#BB6CA6;stroke-opacity:1.000000;fill-opacity:1.000000" />
<circle cx="680.35" cy="306.04" r="6.25" style="stroke-width:1;stroke:#CB6E8B;fill:#CB6E8B;stroke-opacity:1.000000;fill-opacity:1.000000" />
<circle cx="89.10" cy="500.47" r="6.25" style="stroke-width:1;stroke:#0A097E;fill:#0A097E;stroke-opacity:1.000000;fill-opacity:1.000000" />
<circle cx="100.45" cy="480.85" r="6.25" style="stroke-width:1;stroke:#0E137F;fill:#0E137F;stroke-opacity:1.000000;fill-opacity:1.000000" />
<circle cx="59.02" cy="517.09" r="6.25" style="stroke-width:1;stroke:#00007B;fill:#00007B;stroke-opacity:1.000000;fill-opacity:1.000000" />
<circle cx="99.62" cy="507.79" r="6.25" style="stroke-width:1;stroke:#0D0594;fill:#0D0594;stroke-opacity:1.000000;fill-opacity:1.000000" />
<circle cx="129.03" cy="118.57" r="6.25" style="stroke-width:1;stroke:#17D0C4;fill:#17D0C4;stroke-opacity:1.000000;fill-opacity:1.000000" />
<circle cx="164.89" cy="156.21" r="6.25" style="stroke-width:1;stroke:#23BDE0;fill:#23BDE0;stroke-opacity:1.000000;fill-opacity:1.000000" />
<circle cx="579.09" cy="352.48" r="6.25" style="stroke-width:1;stroke:#AA56EC;fill:#AA56EC;stroke-opacity:1.000000;fill-opacity:1.000000" />
<circle cx="619.26" cy="353.91" r="6.25" style="stroke-width:1;stroke:#B755FF;fill:#B755FF;stroke-opacity:1.000000;fill-opacity:1.000000" />
<circle cx="584.63" cy="357.99" r="6.25" style="stroke-width:1;stroke:#AC53F5;fill:#AC53F5;stroke-opacity:1.000000;fill-opacity:1.000000" />
<circle cx="551.44" cy="354.74" r="6.25" style="stroke-width:1;stroke:#A155AD;fill:#A155AD;stroke-opacity:1.000000;fill-opacity:1.000000" />
<circle cx="582.09" cy="335.77" r="6.25" style="stroke-width:1;stroke:#AB5F81;fill:#AB5F81;stroke-opacity:1.000000;fill-opacity:1.000000" />
<circle cx="617.15" cy="334.40" r="6.25" style="stroke-width:1;stroke:#B660A4;fill:#B660A4;stroke-opacity:1.000000;fill-opacity:1.000000" />
<line x1="140.76" y1="535.66" x2="663.71" y2="535.66" style="stroke-width:1;stroke:#000000;fill:#000000;stroke-opacity:1.000000;fill-opacity:0.000000"/>
<line x1="140.76" y1="535.66" x2="140.76" y2="539.83" style="stroke-width:1;stroke:#000000;fill:#000000;stroke-opacity:1.000000;fill-opacity:0.000000"/>
<line x1="271.50" y1="535.66" x2="271.50" y2="539.83" style="stroke-width:1;stroke:#000000;fill:#000000;stroke-opacity:1.000000;fill-opacity:0.000000"/>
<line x1="402.24" y1="535.66" x2="402.24" y2="539.83" style="stroke-width:1;stroke:#000000;fill:#000000;stroke-opacity:1.000000;fill-opacity:0.000000"/>
<line x1="532.98" y1="535.66" x2="532.98" y2="539.83" style="stroke-width:1;stroke:#000000;fill:#000000;stroke-opacity:1.000000;fill-opacity:0.000000"/>
<line x1="663.71" y1="535.66" x2="663.71" y2="539.83" style="stroke-width:1;stroke:#000000;fill:#000000;stroke-opacity:1.000000;fill-opacity:0.000000"/>
<text transform="translate(134.09,552.33)"  style="font-size:10" >-40</text>
<text transform="translate(264.17,552.33)"  style="font-size:10" >-20</text>
<text transform="translate(399.49,552.33)"  style="font-size:10" >0</text>
<text transform="translate(527.48,552.33)"  style="font-size:10" >20</text>
<text transform="translate(658.21,552.33)"  style="font-size:10" >40</text>
<line x1="34.17" y1="461.68" x2="34.17" y2="53.47" style="stroke-width:1;stroke:#000000;fill:#000000;stroke-opacity:1.000000;fill-opacity:0.000000"/>
<line x1="34.17" y1="461.68" x2="30.00" y2="461.68" style="stroke-width:1;stroke:#000000;fill:#000000;stroke-opacity:1.000000;fill-opacity:0.000000"/>
<line x1="34.17" y1="380.04" x2="30.00" y2="380.04" style="stroke-width:1;stroke:#000000;fill:#000000;stroke-opacity:1.000000;fill-opacity:0.000000"/>
<line x1="34.17" y1="298.40" x2="30.00" y2="298.40" style="stroke-width:1;stroke:#000000;fill:#000000;stroke-opacity:1.000000;fill-opacity:0.000000"/>
<line x1="34.17" y1="216.76" x2="30.00" y2="216.76" style="stroke-width:1;stroke:#000000;fill:#000000;stroke-opacity:1.000000;fill-opacity:0.000000"/>
<line x1="34.17" y1="135.11" x2="30.00" y2="135.11" style="stroke-width:1;stroke:#000000;fill:#000000;stroke-opacity:1.000000;fill-opacity:0.000000"/>
<line x1="34.17" y1="53.47" x2="30.00" y2="53.47" style="stroke-width:1;stroke:#000000;fill:#000000;stroke-opacity:1.000000;fill-opacity:0.000000"/>
<text transform="translate(25.83,469.01) rotate(-90)"  style="font-size:10" >-40</text>
<text transform="translate(25.83,387.37) rotate(-90)"  style="font-size:10" >-20</text>
<text transform="translate(25.83,301.15) rotate(-90)"  style="font-size:10" >0</text>
<text transform="translate(25.83,222.26) rotate(-90)"  style="font-size:10" >20</text>
<text transform="translate(25.83,140.61) rotate(-90)"  style="font-size:10" >40</text>
<text transform="translate(25.83,58.97) rotate(-90)"  style="font-size:10" >60</text>
<polyline points="34.17 , 535.66 705.20 , 535.66 705.20 , 34.17 34.17 , 34.17 34.17 , 535.66 " style="stroke-width:1;stroke:#000000;fill:#000000;stroke-opacity:1.000000;fill-opacity:0.000000"/>
<text transform="translate(359.91,568.99)"  style="font-size:10" >PC1</text>
<text transform="translate(9.17,294.69) rotate(-90)"  style="font-size:10" >PC2</text>
<line x1="34.17" y1="298.40" x2="705.20" y2="298.40" style="stroke-width:1;stroke:#BEBEBE;fill:#000000;stroke-opacity:1.000000;fill-opacity:0.000000"/>
<line x1="402.24" y1="535.66" x2="402.24" y2="34.17" style="stroke-width:1;stroke:#BEBEBE;fill:#000000;stroke-opacity:1.000000;fill-opacity:0.000000"/>
<text transform="translate(325.34,283.99)"  style="font-size:10" >AA_R11M</text>
<text transform="translate(164.94,82.62)"  style="font-size:10" >AA_R16M</text>
<text transform="translate(235.38,83.20)"  style="font-size:10" >AA_R18F</text>
<text transform="translate(208.66,52.74)"  style="font-size:10" >AA_R28F</text>
<text transform="translate(321.80,251.34)"  style="font-size:10" >AA_R2M</text>
<text transform="translate(346.26,273.60)"  style="font-size:10" >AA_R8F</text>
<text transform="translate(644.55,267.36)"  style="font-size:10" >AA_T12F</text>
<text transform="translate(528.83,291.78)"  style="font-size:10" >AA_T20F</text>
<text transform="translate(576.63,297.06)"  style="font-size:10" >AA_T24M</text>
<text transform="translate(602.64,290.11)"  style="font-size:10" >AA_T3M</text>
<text transform="translate(608.77,311.42)"  style="font-size:10" >AA_T42M</text>
<text transform="translate(659.26,306.04)"  style="font-size:10" >AA_T45F</text>
<text transform="translate(71.99,500.47)"  style="font-size:10" >AJ_R1F</text>
<text transform="translate(81.51,480.85)"  style="font-size:10" >AJ_R1M</text>
<text transform="translate(41.91,517.09)"  style="font-size:10" >AJ_R3F</text>
<text transform="translate(80.68,507.79)"  style="font-size:10" >AJ_R3M</text>
<text transform="translate(111.92,118.57)"  style="font-size:10" >AJ_R5F</text>
<text transform="translate(145.94,156.21)"  style="font-size:10" >AJ_R5M</text>
<text transform="translate(557.25,352.48)"  style="font-size:10" >AJ_T19M</text>
<text transform="translate(597.41,353.91)"  style="font-size:10" >AJ_T20M</text>
<text transform="translate(562.79,357.99)"  style="font-size:10" >AJ_T25M</text>
<text transform="translate(531.42,354.74)"  style="font-size:10" >AJ_T26F</text>
<text transform="translate(564.83,335.77)"  style="font-size:10" >AJ_T5F</text>
<text transform="translate(599.89,334.40)"  style="font-size:10" >AJ_T8F</text>
<polygon points="685.73 , 203.19 685.73 , 29.74 468.92 , 29.74 468.92 , 203.19 " style="stroke-width:1;stroke:#FFFFFF;fill:#FFFFFF;stroke-opacity:0.000000;fill-opacity:1.000000" />
<rect x="476.95" y="45.51" width="7.33" height="157.68" style="stroke-width:1;stroke:#000000;fill:#000000;stroke-opacity:1.000000;fill-opacity:1.000000" />
<rect x="485.74" y="66.28" width="7.33" height="136.91" style="stroke-width:1;stroke:#000000;fill:#000000;stroke-opacity:1.000000;fill-opacity:1.000000" />
<rect x="494.54" y="106.61" width="7.33" height="96.58" style="stroke-width:1;stroke:#000000;fill:#FFFFFF;stroke-opacity:1.000000;fill-opacity:1.000000" />
<rect x="503.33" y="117.22" width="7.33" height="85.97" style="stroke-width:1;stroke:#000000;fill:#FFFFFF;stroke-opacity:1.000000;fill-opacity:1.000000" />
<rect x="512.12" y="121.26" width="7.33" height="81.93" style="stroke-width:1;stroke:#000000;fill:#FFFFFF;stroke-opacity:1.000000;fill-opacity:1.000000" />
<rect x="520.91" y="126.71" width="7.33" height="76.48" style="stroke-width:1;stroke:#000000;fill:#FFFFFF;stroke-opacity:1.000000;fill-opacity:1.000000" />
<rect x="529.70" y="128.29" width="7.33" height="74.90" style="stroke-width:1;stroke:#000000;fill:#FFFFFF;stroke-opacity:1.000000;fill-opacity:1.000000" />
<rect x="538.50" y="134.34" width="7.33" height="68.85" style="stroke-width:1;stroke:#000000;fill:#FFFFFF;stroke-opacity:1.000000;fill-opacity:1.000000" />
<rect x="547.29" y="137.18" width="7.33" height="66.01" style="stroke-width:1;stroke:#000000;fill:#FFFFFF;stroke-opacity:1.000000;fill-opacity:1.000000" />
<rect x="556.08" y="142.04" width="7.33" height="61.15" style="stroke-width:1;stroke:#000000;fill:#FFFFFF;stroke-opacity:1.000000;fill-opacity:1.000000" />
<rect x="564.87" y="144.16" width="7.33" height="59.03" style="stroke-width:1;stroke:#000000;fill:#FFFFFF;stroke-opacity:1.000000;fill-opacity:1.000000" />
<rect x="573.66" y="146.61" width="7.33" height="56.58" style="stroke-width:1;stroke:#000000;fill:#FFFFFF;stroke-opacity:1.000000;fill-opacity:1.000000" />
<rect x="582.46" y="148.75" width="7.33" height="54.44" style="stroke-width:1;stroke:#000000;fill:#FFFFFF;stroke-opacity:1.000000;fill-opacity:1.000000" />
<rect x="591.25" y="150.29" width="7.33" height="52.90" style="stroke-width:1;stroke:#000000;fill:#FFFFFF;stroke-opacity:1.000000;fill-opacity:1.000000" />
<rect x="600.04" y="151.84" width="7.33" height="51.35" style="stroke-width:1;stroke:#000000;fill:#FFFFFF;stroke-opacity:1.000000;fill-opacity:1.000000" />
<rect x="608.83" y="153.08" width="7.33" height="50.11" style="stroke-width:1;stroke:#000000;fill:#FFFFFF;stroke-opacity:1.000000;fill-opacity:1.000000" />
<rect x="617.62" y="154.21" width="7.33" height="48.98" style="stroke-width:1;stroke:#000000;fill:#FFFFFF;stroke-opacity:1.000000;fill-opacity:1.000000" />
<rect x="626.42" y="154.93" width="7.33" height="48.26" style="stroke-width:1;stroke:#000000;fill:#FFFFFF;stroke-opacity:1.000000;fill-opacity:1.000000" />
<rect x="635.21" y="158.31" width="7.33" height="44.88" style="stroke-width:1;stroke:#000000;fill:#FFFFFF;stroke-opacity:1.000000;fill-opacity:1.000000" />
<rect x="644.00" y="158.86" width="7.33" height="44.33" style="stroke-width:1;stroke:#000000;fill:#FFFFFF;stroke-opacity:1.000000;fill-opacity:1.000000" />
<rect x="652.79" y="158.99" width="7.33" height="44.19" style="stroke-width:1;stroke:#000000;fill:#FFFFFF;stroke-opacity:1.000000;fill-opacity:1.000000" />
<rect x="661.58" y="159.91" width="7.33" height="43.28" style="stroke-width:1;stroke:#000000;fill:#FFFFFF;stroke-opacity:1.000000;fill-opacity:1.000000" />
<rect x="670.38" y="162.61" width="7.33" height="40.58" style="stroke-width:1;stroke:#000000;fill:#FFFFFF;stroke-opacity:1.000000;fill-opacity:1.000000" />
<polygon points="685.73 , 29.74 685.73 , 40.85 639.29 , 40.85 639.29 , 29.74 " style="stroke-width:1;stroke:#FFFFFF;fill:#FFFFFF;stroke-opacity:1.000000;fill-opacity:1.000000" />
<polyline points="468.92 , 203.19 685.73 , 203.19 685.73 , 29.74 468.92 , 29.74 468.92 , 203.19 " style="stroke-width:1;stroke:#000000;fill:#000000;stroke-opacity:1.000000;fill-opacity:0.000000"/>
</svg>
