<?xml version="1.0" encoding="UTF-8"?>
<svg xmlns="http://www.w3.org/2000/svg" width="722.70" height="578.16" viewBox="0,0,722.70,578.16">
<desc>R SVG Plot!</desc>
<rect width="100%" height="100%" style="fill:#FFFFFF"/>
<circle cx="316.09" cy="259.61" r="6.25" style="stroke-width:1;stroke:#5180BA;fill:#5180BA;stroke-opacity:1.000000;fill-opacity:1.000000" />
<circle cx="96.55" cy="52.74" r="6.25" style="stroke-width:1;stroke:#0CE7B1;fill:#0CE7B1;stroke-opacity:1.000000;fill-opacity:1.000000" />
<circle cx="160.40" cy="91.30" r="6.25" style="stroke-width:1;stroke:#20D49A;fill:#20D49A;stroke-opacity:1.000000;fill-opacity:1.000000" />
<circle cx="145.01" cy="77.89" r="6.25" style="stroke-width:1;stroke:#1BDB9B;fill:#1BDB9B;stroke-opacity:1.000000;fill-opacity:1.000000" />
<circle cx="294.73" cy="245.27" r="6.25" style="stroke-width:1;stroke:#4A87BD;fill:#4A87BD;stroke-opacity:1.000000;fill-opacity:1.000000" />
<circle cx="349.03" cy="257.55" r="6.25" style="stroke-width:1;stroke:#5B81AA;fill:#5B81AA;stroke-opacity:1.000000;fill-opacity:1.000000" />
<circle cx="649.96" cy="252.13" r="6.25" style="stroke-width:1;stroke:#BA8400;fill:#BA8400;stroke-opacity:1.000000;fill-opacity:1.000000" />
<circle cx="551.13" cy="257.78" r="6.25" style="stroke-width:1;stroke:#9B8184;fill:#9B8184;stroke-opacity:1.000000;fill-opacity:1.000000" />
<circle cx="605.45" cy="261.24" r="6.25" style="stroke-width:1;stroke:#AC80D4;fill:#AC80D4;stroke-opacity:1.000000;fill-opacity:1.000000" />
<circle cx="634.63" cy="251.43" r="6.25" style="stroke-width:1;stroke:#B5841D;fill:#B5841D;stroke-opacity:1.000000;fill-opacity:1.000000" />
<circle cx="665.20" cy="263.42" r="6.25" style="stroke-width:1;stroke:#BE7EC8;fill:#BE7EC8;stroke-opacity:1.000000;fill-opacity:1.000000" />
<circle cx="680.35" cy="259.82" r="6.25" style="stroke-width:1;stroke:#C380C0;fill:#C380C0;stroke-opacity:1.000000;fill-opacity:1.000000" />
<circle cx="105.99" cy="512.84" r="6.25" style="stroke-width:1;stroke:#0F02A0;fill:#0F02A0;stroke-opacity:1.000000;fill-opacity:1.000000" />
<circle cx="91.20" cy="517.09" r="6.25" style="stroke-width:1;stroke:#0A00A2;fill:#0A00A2;stroke-opacity:1.000000;fill-opacity:1.000000" />
<circle cx="113.32" cy="499.96" r="6.25" style="stroke-width:1;stroke:#11099D;fill:#11099D;stroke-opacity:1.000000;fill-opacity:1.000000" />
<circle cx="126.50" cy="505.73" r="6.25" style="stroke-width:1;stroke:#1506A8;fill:#1506A8;stroke-opacity:1.000000;fill-opacity:1.000000" />
<circle cx="59.02" cy="55.34" r="6.25" style="stroke-width:1;stroke:#00E6A7;fill:#00E6A7;stroke-opacity:1.000000;fill-opacity:1.000000" />
<circle cx="99.29" cy="60.28" r="6.25" style="stroke-width:1;stroke:#0DE4B2;fill:#0DE4B2;stroke-opacity:1.000000;fill-opacity:1.000000" />
<circle cx="615.52" cy="271.87" r="6.25" style="stroke-width:1;stroke:#AF7AF5;fill:#AF7AF5;stroke-opacity:1.000000;fill-opacity:1.000000" />
<circle cx="635.53" cy="269.62" r="6.25" style="stroke-width:1;stroke:#B57BFF;fill:#B57BFF;stroke-opacity:1.000000;fill-opacity:1.000000" />
<circle cx="612.62" cy="272.17" r="6.25" style="stroke-width:1;stroke:#AE7AF7;fill:#AE7AF7;stroke-opacity:1.000000;fill-opacity:1.000000" />
<circle cx="588.37" cy="264.61" r="6.25" style="stroke-width:1;stroke:#A67EB4;fill:#A67EB4;stroke-opacity:1.000000;fill-opacity:1.000000" />
<circle cx="601.52" cy="268.30" r="6.25" style="stroke-width:1;stroke:#AA7C77;fill:#AA7C77;stroke-opacity:1.000000;fill-opacity:1.000000" />
<circle cx="629.10" cy="265.60" r="6.25" style="stroke-width:1;stroke:#B37DBF;fill:#B37DBF;stroke-opacity:1.000000;fill-opacity:1.000000" />
<line x1="113.11" y1="535.66" x2="672.43" y2="535.66" style="stroke-width:1;stroke:#000000;fill:#000000;stroke-opacity:1.000000;fill-opacity:0.000000"/>
<line x1="113.11" y1="535.66" x2="113.11" y2="539.83" style="stroke-width:1;stroke:#000000;fill:#000000;stroke-opacity:1.000000;fill-opacity:0.000000"/>
<line x1="206.33" y1="535.66" x2="206.33" y2="539.83" style="stroke-width:1;stroke:#000000;fill:#000000;stroke-opacity:1.000000;fill-opacity:0.000000"/>
<line x1="299.55" y1="535.66" x2="299.55" y2="539.83" style="stroke-width:1;stroke:#000000;fill:#000000;stroke-opacity:1.000000;fill-opacity:0.000000"/>
<line x1="392.77" y1="535.66" x2="392.77" y2="539.83" style="stroke-width:1;stroke:#000000;fill:#000000;stroke-opacity:1.000000;fill-opacity:0.000000"/>
<line x1="485.99" y1="535.66" x2="485.99" y2="539.83" style="stroke-width:1;stroke:#000000;fill:#000000;stroke-opacity:1.000000;fill-opacity:0.000000"/>
<line x1="579.21" y1="535.66" x2="579.21" y2="539.83" style="stroke-width:1;stroke:#000000;fill:#000000;stroke-opacity:1.000000;fill-opacity:0.000000"/>
<line x1="672.43" y1="535.66" x2="672.43" y2="539.83" style="stroke-width:1;stroke:#000000;fill:#000000;stroke-opacity:1.000000;fill-opacity:0.000000"/>
<text transform="translate(106.44,552.33)"  style="font-size:10" >-30</text>
<text transform="translate(199.00,552.33)"  style="font-size:10" >-20</text>
<text transform="translate(292.22,552.33)"  style="font-size:10" >-10</text>
<text transform="translate(390.02,552.33)"  style="font-size:10" >0</text>
<text transform="translate(480.49,552.33)"  style="font-size:10" >10</text>
<text transform="translate(573.71,552.33)"  style="font-size:10" >20</text>
<text transform="translate(666.93,552.33)"  style="font-size:10" >30</text>
<line x1="34.17" y1="497.17" x2="34.17" y2="144.76" style="stroke-width:1;stroke:#000000;fill:#000000;stroke-opacity:1.000000;fill-opacity:0.000000"/>
<line x1="34.17" y1="497.17" x2="30.00" y2="497.17" style="stroke-width:1;stroke:#000000;fill:#000000;stroke-opacity:1.000000;fill-opacity:0.000000"/>
<line x1="34.17" y1="379.70" x2="30.00" y2="379.70" style="stroke-width:1;stroke:#000000;fill:#000000;stroke-opacity:1.000000;fill-opacity:0.000000"/>
<line x1="34.17" y1="262.23" x2="30.00" y2="262.23" style="stroke-width:1;stroke:#000000;fill:#000000;stroke-opacity:1.000000;fill-opacity:0.000000"/>
<line x1="34.17" y1="144.76" x2="30.00" y2="144.76" style="stroke-width:1;stroke:#000000;fill:#000000;stroke-opacity:1.000000;fill-opacity:0.000000"/>
<text transform="translate(25.83,504.51) rotate(-90)"  style="font-size:10" >-40</text>
<text transform="translate(25.83,387.04) rotate(-90)"  style="font-size:10" >-20</text>
<text transform="translate(25.83,264.98) rotate(-90)"  style="font-size:10" >0</text>
<text transform="translate(25.83,150.26) rotate(-90)"  style="font-size:10" >20</text>
<polyline points="34.17 , 535.66 705.20 , 535.66 705.20 , 34.17 34.17 , 34.17 34.17 , 535.66 " style="stroke-width:1;stroke:#000000;fill:#000000;stroke-opacity:1.000000;fill-opacity:0.000000"/>
<text transform="translate(359.91,568.99)"  style="font-size:10" >PC1</text>
<text transform="translate(9.17,294.69) rotate(-90)"  style="font-size:10" >PC2</text>
<line x1="34.17" y1="262.23" x2="705.20" y2="262.23" style="stroke-width:1;stroke:#BEBEBE;fill:#000000;stroke-opacity:1.000000;fill-opacity:0.000000"/>
<line x1="392.77" y1="535.66" x2="392.77" y2="34.17" style="stroke-width:1;stroke:#BEBEBE;fill:#000000;stroke-opacity:1.000000;fill-opacity:0.000000"/>
<text transform="translate(293.32,259.61)"  style="font-size:10" >AA_R11M</text>
<text transform="translate(73.79,52.74)"  style="font-size:10" >AA_R16M</text>
<text transform="translate(139.47,91.30)"  style="font-size:10" >AA_R18F</text>
<text transform="translate(124.08,77.89)"  style="font-size:10" >AA_R28F</text>
<text transform="translate(274.72,245.27)"  style="font-size:10" >AA_R2M</text>
<text transform="translate(330.84,257.55)"  style="font-size:10" >AA_R8F</text>
<text transform="translate(628.87,252.13)"  style="font-size:10" >AA_T12F</text>
<text transform="translate(530.05,257.78)"  style="font-size:10" >AA_T20F</text>
<text transform="translate(582.53,261.24)"  style="font-size:10" >AA_T24M</text>
<text transform="translate(614.46,251.43)"  style="font-size:10" >AA_T3M</text>
<text transform="translate(642.28,263.42)"  style="font-size:10" >AA_T42M</text>
<text transform="translate(659.26,259.82)"  style="font-size:10" >AA_T45F</text>
<text transform="translate(88.88,512.84)"  style="font-size:10" >AJ_R1F</text>
<text transform="translate(72.25,517.09)"  style="font-size:10" >AJ_R1M</text>
<text transform="translate(96.21,499.96)"  style="font-size:10" >AJ_R3F</text>
<text transform="translate(107.56,505.73)"  style="font-size:10" >AJ_R3M</text>
<text transform="translate(41.91,55.34)"  style="font-size:10" >AJ_R5F</text>
<text transform="translate(80.35,60.28)"  style="font-size:10" >AJ_R5M</text>
<text transform="translate(593.67,271.87)"  style="font-size:10" >AJ_T19M</text>
<text transform="translate(613.68,269.62)"  style="font-size:10" >AJ_T20M</text>
<text transform="translate(590.77,272.17)"  style="font-size:10" >AJ_T25M</text>
<text transform="translate(568.35,264.61)"  style="font-size:10" >AJ_T26F</text>
<text transform="translate(584.25,268.30)"  style="font-size:10" >AJ_T5F</text>
<text transform="translate(611.83,265.60)"  style="font-size:10" >AJ_T8F</text>
<polygon points="685.73 , 203.19 685.73 , 29.74 468.92 , 29.74 468.92 , 203.19 " style="stroke-width:1;stroke:#FFFFFF;fill:#FFFFFF;stroke-opacity:0.000000;fill-opacity:1.000000" />
<rect x="476.95" y="45.51" width="7.33" height="157.68" style="stroke-width:1;stroke:#000000;fill:#000000;stroke-opacity:1.000000;fill-opacity:1.000000" />
<rect x="485.74" y="78.56" width="7.33" height="124.63" style="stroke-width:1;stroke:#000000;fill:#000000;stroke-opacity:1.000000;fill-opacity:1.000000" />
<rect x="494.54" y="114.86" width="7.33" height="88.33" style="stroke-width:1;stroke:#000000;fill:#FFFFFF;stroke-opacity:1.000000;fill-opacity:1.000000" />
<rect x="503.33" y="122.39" width="7.33" height="80.80" style="stroke-width:1;stroke:#000000;fill:#FFFFFF;stroke-opacity:1.000000;fill-opacity:1.000000" />
<rect x="512.12" y="134.41" width="7.33" height="68.78" style="stroke-width:1;stroke:#000000;fill:#FFFFFF;stroke-opacity:1.000000;fill-opacity:1.000000" />
<rect x="520.91" y="138.67" width="7.33" height="64.52" style="stroke-width:1;stroke:#000000;fill:#FFFFFF;stroke-opacity:1.000000;fill-opacity:1.000000" />
<rect x="529.70" y="140.00" width="7.33" height="63.19" style="stroke-width:1;stroke:#000000;fill:#FFFFFF;stroke-opacity:1.000000;fill-opacity:1.000000" />
<rect x="538.50" y="144.16" width="7.33" height="59.03" style="stroke-width:1;stroke:#000000;fill:#FFFFFF;stroke-opacity:1.000000;fill-opacity:1.000000" />
<rect x="547.29" y="144.94" width="7.33" height="58.25" style="stroke-width:1;stroke:#000000;fill:#FFFFFF;stroke-opacity:1.000000;fill-opacity:1.000000" />
<rect x="556.08" y="149.83" width="7.33" height="53.35" style="stroke-width:1;stroke:#000000;fill:#FFFFFF;stroke-opacity:1.000000;fill-opacity:1.000000" />
<rect x="564.87" y="153.65" width="7.33" height="49.54" style="stroke-width:1;stroke:#000000;fill:#FFFFFF;stroke-opacity:1.000000;fill-opacity:1.000000" />
<rect x="573.66" y="155.66" width="7.33" height="47.53" style="stroke-width:1;stroke:#000000;fill:#FFFFFF;stroke-opacity:1.000000;fill-opacity:1.000000" />
<rect x="582.46" y="156.26" width="7.33" height="46.93" style="stroke-width:1;stroke:#000000;fill:#FFFFFF;stroke-opacity:1.000000;fill-opacity:1.000000" />
<rect x="591.25" y="162.00" width="7.33" height="41.19" style="stroke-width:1;stroke:#000000;fill:#FFFFFF;stroke-opacity:1.000000;fill-opacity:1.000000" />
<rect x="600.04" y="163.88" width="7.33" height="39.31" style="stroke-width:1;stroke:#000000;fill:#FFFFFF;stroke-opacity:1.000000;fill-opacity:1.000000" />
<rect x="608.83" y="164.77" width="7.33" height="38.42" style="stroke-width:1;stroke:#000000;fill:#FFFFFF;stroke-opacity:1.000000;fill-opacity:1.000000" />
<rect x="617.62" y="165.91" width="7.33" height="37.28" style="stroke-width:1;stroke:#000000;fill:#FFFFFF;stroke-opacity:1.000000;fill-opacity:1.000000" />
<rect x="626.42" y="166.81" width="7.33" height="36.38" style="stroke-width:1;stroke:#000000;fill:#FFFFFF;stroke-opacity:1.000000;fill-opacity:1.000000" />
<rect x="635.21" y="168.24" width="7.33" height="34.95" style="stroke-width:1;stroke:#000000;fill:#FFFFFF;stroke-opacity:1.000000;fill-opacity:1.000000" />
<rect x="644.00" y="169.54" width="7.33" height="33.65" style="stroke-width:1;stroke:#000000;fill:#FFFFFF;stroke-opacity:1.000000;fill-opacity:1.000000" />
<rect x="652.79" y="171.63" width="7.33" height="31.55" style="stroke-width:1;stroke:#000000;fill:#FFFFFF;stroke-opacity:1.000000;fill-opacity:1.000000" />
<rect x="661.58" y="173.24" width="7.33" height="29.95" style="stroke-width:1;stroke:#000000;fill:#FFFFFF;stroke-opacity:1.000000;fill-opacity:1.000000" />
<rect x="670.38" y="175.97" width="7.33" height="27.22" style="stroke-width:1;stroke:#000000;fill:#FFFFFF;stroke-opacity:1.000000;fill-opacity:1.000000" />
<polygon points="685.73 , 29.74 685.73 , 40.85 639.29 , 40.85 639.29 , 29.74 " style="stroke-width:1;stroke:#FFFFFF;fill:#FFFFFF;stroke-opacity:1.000000;fill-opacity:1.000000" />
<polyline points="468.92 , 203.19 685.73 , 203.19 685.73 , 29.74 468.92 , 29.74 468.92 , 203.19 " style="stroke-width:1;stroke:#000000;fill:#000000;stroke-opacity:1.000000;fill-opacity:0.000000"/>
</svg>
