<?xml version="1.0" encoding="UTF-8"?>
<svg xmlns="http://www.w3.org/2000/svg" width="722.70" height="578.16" viewBox="0,0,722.70,578.16">
<desc>R SVG Plot!</desc>
<rect width="100%" height="100%" style="fill:#FFFFFF"/>
<line x1="44.15" y1="535.66" x2="697.51" y2="535.66" style="stroke-width:1;stroke:#000000;fill:#000000;stroke-opacity:1.000000;fill-opacity:0.000000"/>
<line x1="44.15" y1="535.66" x2="44.15" y2="539.83" style="stroke-width:1;stroke:#000000;fill:#000000;stroke-opacity:1.000000;fill-opacity:0.000000"/>
<line x1="153.04" y1="535.66" x2="153.04" y2="539.83" style="stroke-width:1;stroke:#000000;fill:#000000;stroke-opacity:1.000000;fill-opacity:0.000000"/>
<line x1="261.94" y1="535.66" x2="261.94" y2="539.83" style="stroke-width:1;stroke:#000000;fill:#000000;stroke-opacity:1.000000;fill-opacity:0.000000"/>
<line x1="370.83" y1="535.66" x2="370.83" y2="539.83" style="stroke-width:1;stroke:#000000;fill:#000000;stroke-opacity:1.000000;fill-opacity:0.000000"/>
<line x1="479.72" y1="535.66" x2="479.72" y2="539.83" style="stroke-width:1;stroke:#000000;fill:#000000;stroke-opacity:1.000000;fill-opacity:0.000000"/>
<line x1="588.62" y1="535.66" x2="588.62" y2="539.83" style="stroke-width:1;stroke:#000000;fill:#000000;stroke-opacity:1.000000;fill-opacity:0.000000"/>
<line x1="697.51" y1="535.66" x2="697.51" y2="539.83" style="stroke-width:1;stroke:#000000;fill:#000000;stroke-opacity:1.000000;fill-opacity:0.000000"/>
<text transform="translate(39.98,552.33)"  style="font-size:10" >-6</text>
<text transform="translate(148.46,552.33)"  style="font-size:10" >-4</text>
<text transform="translate(257.35,552.33)"  style="font-size:10" >-2</text>
<text transform="translate(368.08,552.33)"  style="font-size:10" >0</text>
<text transform="translate(476.97,552.33)"  style="font-size:10" >2</text>
<text transform="translate(585.87,552.33)"  style="font-size:10" >4</text>
<text transform="translate(694.76,552.33)"  style="font-size:10" >6</text>
<line x1="34.17" y1="517.79" x2="34.17" y2="75.27" style="stroke-width:1;stroke:#000000;fill:#000000;stroke-opacity:1.000000;fill-opacity:0.000000"/>
<line x1="34.17" y1="517.79" x2="30.00" y2="517.79" style="stroke-width:1;stroke:#000000;fill:#000000;stroke-opacity:1.000000;fill-opacity:0.000000"/>
<line x1="34.17" y1="444.03" x2="30.00" y2="444.03" style="stroke-width:1;stroke:#000000;fill:#000000;stroke-opacity:1.000000;fill-opacity:0.000000"/>
<line x1="34.17" y1="370.28" x2="30.00" y2="370.28" style="stroke-width:1;stroke:#000000;fill:#000000;stroke-opacity:1.000000;fill-opacity:0.000000"/>
<line x1="34.17" y1="296.53" x2="30.00" y2="296.53" style="stroke-width:1;stroke:#000000;fill:#000000;stroke-opacity:1.000000;fill-opacity:0.000000"/>
<line x1="34.17" y1="222.77" x2="30.00" y2="222.77" style="stroke-width:1;stroke:#000000;fill:#000000;stroke-opacity:1.000000;fill-opacity:0.000000"/>
<line x1="34.17" y1="149.02" x2="30.00" y2="149.02" style="stroke-width:1;stroke:#000000;fill:#000000;stroke-opacity:1.000000;fill-opacity:0.000000"/>
<line x1="34.17" y1="75.27" x2="30.00" y2="75.27" style="stroke-width:1;stroke:#000000;fill:#000000;stroke-opacity:1.000000;fill-opacity:0.000000"/>
<text transform="translate(25.83,524.81) rotate(-90)"  style="font-size:10" >0.0</text>
<text transform="translate(25.83,451.06) rotate(-90)"  style="font-size:10" >0.1</text>
<text transform="translate(25.83,377.31) rotate(-90)"  style="font-size:10" >0.2</text>
<text transform="translate(25.83,303.55) rotate(-90)"  style="font-size:10" >0.3</text>
<text transform="translate(25.83,229.80) rotate(-90)"  style="font-size:10" >0.4</text>
<text transform="translate(25.83,156.05) rotate(-90)"  style="font-size:10" >0.5</text>
<text transform="translate(25.83,82.29) rotate(-90)"  style="font-size:10" >0.6</text>
<polyline points="34.17 , 535.66 705.20 , 535.66 705.20 , 34.17 34.17 , 34.17 34.17 , 535.66 " style="stroke-width:1;stroke:#000000;fill:#000000;stroke-opacity:1.000000;fill-opacity:0.000000"/>
<text transform="translate(316.98,568.99)"  style="font-size:10" >Discriminant function 1</text>
<text transform="translate(9.17,302.15) rotate(-90)"  style="font-size:10" >Density</text>
<polygon points="59.02 , 517.06 59.63 , 517.00 60.24 , 516.93 60.85 , 516.85 61.47 , 516.77 62.08 , 516.68 62.69 , 516.59 63.30 , 516.49 63.91 , 516.38 64.52 , 516.26 65.14 , 516.13 65.75 , 516.00 66.36 , 515.85 66.97 , 515.70 67.58 , 515.53 68.19 , 515.35 68.80 , 515.16 69.42 , 514.96 70.03 , 514.75 70.64 , 514.51 71.25 , 514.27 71.86 , 514.01 72.47 , 513.74 73.09 , 513.45 73.70 , 513.13 74.31 , 512.80 74.92 , 512.46 75.53 , 512.09 76.14 , 511.70 76.76 , 511.29 77.37 , 510.85 77.98 , 510.39 78.59 , 509.91 79.20 , 509.40 79.81 , 508.86 80.42 , 508.30 81.04 , 507.70 81.65 , 507.08 82.26 , 506.43 82.87 , 505.74 83.48 , 505.02 84.09 , 504.27 84.71 , 503.48 85.32 , 502.66 85.93 , 501.79 86.54 , 500.89 87.15 , 499.96 87.76 , 498.97 88.38 , 497.95 88.99 , 496.89 89.60 , 495.77 90.21 , 494.62 90.82 , 493.42 91.43 , 492.17 92.04 , 490.87 92.66 , 489.53 93.27 , 488.12 93.88 , 486.68 94.49 , 485.17 95.10 , 483.61 95.71 , 482.01 96.33 , 480.33 96.94 , 478.59 97.55 , 476.82 98.16 , 474.96 98.77 , 473.05 99.38 , 471.09 100.00 , 469.03 100.61 , 466.94 101.22 , 464.77 101.83 , 462.52 102.44 , 460.23 103.05 , 457.85 103.66 , 455.39 104.28 , 452.88 104.89 , 450.28 105.50 , 447.61 106.11 , 444.88 106.72 , 442.04 107.33 , 439.13 107.95 , 436.17 108.56 , 433.09 109.17 , 429.94 109.78 , 426.73 110.39 , 423.39 111.00 , 420.00 111.62 , 416.52 112.23 , 412.93 112.84 , 409.27 113.45 , 405.52 114.06 , 401.66 114.67 , 397.74 115.28 , 393.71 115.90 , 389.58 116.51 , 385.39 117.12 , 381.06 117.73 , 376.66 118.34 , 372.19 118.95 , 367.57 119.57 , 362.90 120.18 , 358.14 120.79 , 353.25 121.40 , 348.30 122.01 , 343.26 122.62 , 338.10 123.24 , 332.88 123.85 , 327.57 124.46 , 322.16 125.07 , 316.69 125.68 , 311.12 126.29 , 305.47 126.90 , 299.77 127.52 , 293.97 128.13 , 288.11 128.74 , 282.20 129.35 , 276.20 129.96 , 270.16 130.57 , 264.08 131.19 , 257.93 131.80 , 251.75 132.41 , 245.53 133.02 , 239.28 133.63 , 233.01 134.24 , 226.72 134.86 , 220.42 135.47 , 214.11 136.08 , 207.80 136.69 , 201.51 137.30 , 195.23 137.91 , 188.99 138.52 , 182.77 139.14 , 176.58 139.75 , 170.47 140.36 , 164.41 140.97 , 158.40 141.58 , 152.50 142.19 , 146.66 142.81 , 140.91 143.42 , 135.30 144.03 , 129.77 144.64 , 124.37 145.25 , 119.12 145.86 , 113.97 146.48 , 109.01 147.09 , 104.21 147.70 , 99.52 148.31 , 95.09 148.92 , 90.80 149.53 , 86.66 150.14 , 82.81 150.76 , 79.12 151.37 , 75.61 151.98 , 72.41 152.59 , 69.37 153.20 , 66.57 153.81 , 64.06 154.43 , 61.72 155.04 , 59.69 155.65 , 57.92 156.26 , 56.34 156.87 , 55.11 157.48 , 54.12 158.09 , 53.32 158.71 , 52.93 159.32 , 52.74 159.93 , 52.77 160.54 , 53.20 161.15 , 53.83 161.76 , 54.70 162.38 , 55.94 162.99 , 57.38 163.60 , 59.10 164.21 , 61.13 164.82 , 63.36 165.43 , 65.89 166.05 , 68.70 166.66 , 71.68 167.27 , 75.00 167.88 , 78.53 168.49 , 82.23 169.10 , 86.28 169.71 , 90.49 170.33 , 94.87 170.94 , 99.56 171.55 , 104.39 172.16 , 109.40 172.77 , 114.65 173.38 , 120.03 174.00 , 125.59 174.61 , 131.33 175.22 , 137.18 175.83 , 143.21 176.44 , 149.36 177.05 , 155.61 177.67 , 162.01 178.28 , 168.49 178.89 , 175.05 179.50 , 181.73 180.11 , 188.46 180.72 , 195.25 181.33 , 202.12 181.95 , 209.02 182.56 , 215.96 183.17 , 222.93 183.78 , 229.91 184.39 , 236.90 185.00 , 243.90 185.62 , 250.89 186.23 , 257.86 186.84 , 264.80 187.45 , 271.73 188.06 , 278.60 188.67 , 285.43 189.29 , 292.23 189.90 , 298.93 190.51 , 305.58 191.12 , 312.18 191.73 , 318.67 192.34 , 325.09 192.95 , 331.44 193.57 , 337.66 194.18 , 343.81 194.79 , 349.85 195.40 , 355.77 196.01 , 361.61 196.62 , 367.32 197.24 , 372.90 197.85 , 378.41 198.46 , 383.74 199.07 , 388.97 199.68 , 394.12 200.29 , 399.07 200.91 , 403.93 201.52 , 408.69 202.13 , 413.26 202.74 , 417.75 203.35 , 422.10 203.96 , 426.30 204.57 , 430.40 205.19 , 434.36 205.80 , 438.18 206.41 , 441.91 207.02 , 445.48 207.63 , 448.93 208.24 , 452.29 208.86 , 455.48 209.47 , 458.58 210.08 , 461.59 210.69 , 464.42 211.30 , 467.17 211.91 , 469.83 212.53 , 472.34 213.14 , 474.77 213.75 , 477.10 214.36 , 479.30 214.97 , 481.43 215.58 , 483.45 216.19 , 485.37 216.81 , 487.22 217.42 , 488.96 218.03 , 490.61 218.64 , 492.20 219.25 , 493.68 219.86 , 495.10 220.48 , 496.45 221.09 , 497.70 221.70 , 498.89 222.31 , 500.03 222.92 , 501.07 223.53 , 502.06 224.15 , 502.99 224.76 , 503.85 225.37 , 504.66 225.98 , 505.41 226.59 , 506.10 227.20 , 506.75 227.81 , 507.34 228.43 , 507.87 229.04 , 508.37 229.65 , 508.80 230.26 , 509.20 230.87 , 509.56 231.48 , 509.86 232.10 , 510.12 232.71 , 510.35 233.32 , 510.52 233.93 , 510.67 234.54 , 510.77 235.15 , 510.82 235.76 , 510.85 236.38 , 510.83 236.99 , 510.77 237.60 , 510.68 238.21 , 510.54 238.82 , 510.37 239.43 , 510.17 240.05 , 509.91 240.66 , 509.62 241.27 , 509.30 241.88 , 508.92 242.49 , 508.51 243.10 , 508.06 243.72 , 507.56 244.33 , 507.03 244.94 , 506.45 245.55 , 505.82 246.16 , 505.15 246.77 , 504.44 247.38 , 503.67 248.00 , 502.87 248.61 , 502.00 249.22 , 501.09 249.83 , 500.14 250.44 , 499.12 251.05 , 498.05 251.67 , 496.94 252.28 , 495.76 252.89 , 494.53 253.50 , 493.25 254.11 , 491.90 254.72 , 490.51 255.34 , 489.05 255.95 , 487.52 256.56 , 485.96 257.17 , 484.32 257.78 , 482.61 258.39 , 480.87 259.00 , 479.04 259.62 , 477.16 260.23 , 475.23 260.84 , 473.22 261.45 , 471.16 262.06 , 469.06 262.67 , 466.86 263.29 , 464.63 263.90 , 462.35 264.51 , 459.99 265.12 , 457.59 265.73 , 455.14 266.34 , 452.62 266.96 , 450.07 267.57 , 447.47 268.18 , 444.82 268.79 , 442.13 269.40 , 439.40 270.01 , 436.63 270.62 , 433.83 271.24 , 430.99 271.85 , 428.13 272.46 , 425.25 273.07 , 422.34 273.68 , 419.41 274.29 , 416.48 274.91 , 413.53 275.52 , 410.58 276.13 , 407.63 276.74 , 404.68 277.35 , 401.74 277.96 , 398.81 278.58 , 395.90 279.19 , 393.01 279.80 , 390.15 280.41 , 387.32 281.02 , 384.52 281.63 , 381.78 282.24 , 379.08 282.86 , 376.42 283.47 , 373.84 284.08 , 371.31 284.69 , 368.83 285.30 , 366.45 285.91 , 364.13 286.53 , 361.89 287.14 , 359.75 287.75 , 357.67 288.36 , 355.71 288.97 , 353.84 289.58 , 352.05 290.20 , 350.40 290.81 , 348.85 291.42 , 347.38 292.03 , 346.07 292.64 , 344.86 293.25 , 343.74 293.86 , 342.80 294.48 , 341.95 295.09 , 341.21 295.70 , 340.65 296.31 , 340.17 296.92 , 339.83 297.53 , 339.65 298.15 , 339.56 298.76 , 339.63 299.37 , 339.83 299.98 , 340.12 300.59 , 340.60 301.20 , 341.18 301.82 , 341.86 302.43 , 342.72 303.04 , 343.68 303.65 , 344.73 304.26 , 345.96 304.87 , 347.27 305.48 , 348.69 306.10 , 350.25 306.71 , 351.88 307.32 , 353.63 307.93 , 355.50 308.54 , 357.43 309.15 , 359.48 309.77 , 361.62 310.38 , 363.82 310.99 , 366.12 311.60 , 368.49 312.21 , 370.92 312.82 , 373.44 313.44 , 376.00 314.05 , 378.62 314.66 , 381.30 315.27 , 384.02 315.88 , 386.78 316.49 , 389.58 317.10 , 392.41 317.72 , 395.27 318.33 , 398.15 318.94 , 401.05 319.55 , 403.96 320.16 , 406.88 320.77 , 409.81 321.39 , 412.73 322.00 , 415.65 322.61 , 418.57 323.22 , 421.46 323.83 , 424.34 324.44 , 427.21 325.05 , 430.05 325.67 , 432.86 326.28 , 435.65 326.89 , 438.39 327.50 , 441.11 328.11 , 443.79 328.72 , 446.42 329.34 , 449.02 329.95 , 451.56 330.56 , 454.05 331.17 , 456.52 331.78 , 458.91 332.39 , 461.25 333.01 , 463.56 333.62 , 465.78 334.23 , 467.97 334.84 , 470.10 335.45 , 472.16 336.06 , 474.18 336.67 , 476.14 337.29 , 478.02 337.90 , 479.87 338.51 , 481.65 339.12 , 483.36 339.73 , 485.04 340.34 , 486.64 340.96 , 488.18 341.57 , 489.69 342.18 , 491.12 342.79 , 492.50 343.40 , 493.84 344.01 , 495.10 344.63 , 496.33 345.24 , 497.51 345.85 , 498.63 346.46 , 499.70 347.07 , 500.73 347.68 , 501.71 348.29 , 502.65 348.91 , 503.54 349.52 , 504.39 350.13 , 505.20 350.74 , 505.97 351.35 , 506.69 351.96 , 507.39 352.58 , 508.04 353.19 , 508.67 353.80 , 509.26 354.41 , 509.81 355.02 , 510.34 355.63 , 510.84 356.25 , 511.30 356.86 , 511.75 357.47 , 512.16 358.08 , 512.55 358.69 , 512.92 359.30 , 513.27 359.91 , 513.59 360.53 , 513.89 361.14 , 514.18 361.75 , 514.44 362.36 , 514.69 362.97 , 514.92 363.58 , 515.14 364.20 , 515.35 364.81 , 515.53 365.42 , 515.71 366.03 , 515.87 366.64 , 516.02 367.25 , 516.17 367.87 , 516.30 368.48 , 516.42 369.09 , 516.53 369.70 , 516.63 370.31 , 516.73 370.92 , 516.82 371.53 , 516.90 371.53 , 517.79 370.92 , 517.79 370.31 , 517.79 369.70 , 517.79 369.09 , 517.79 368.48 , 517.79 367.87 , 517.79 367.25 , 517.79 366.64 , 517.79 366.03 , 517.79 365.42 , 517.79 364.81 , 517.79 364.20 , 517.79 363.58 , 517.79 362.97 , 517.79 362.36 , 517.79 361.75 , 517.79 361.14 , 517.79 360.53 , 517.79 359.91 , 517.79 359.30 , 517.79 358.69 , 517.79 358.08 , 517.79 357.47 , 517.79 356.86 , 517.79 356.25 , 517.79 355.63 , 517.79 355.02 , 517.79 354.41 , 517.79 353.80 , 517.79 353.19 , 517.79 352.58 , 517.79 351.96 , 517.79 351.35 , 517.79 350.74 , 517.79 350.13 , 517.79 349.52 , 517.79 348.91 , 517.79 348.29 , 517.79 347.68 , 517.79 347.07 , 517.79 346.46 , 517.79 345.85 , 517.79 345.24 , 517.79 344.63 , 517.79 344.01 , 517.79 343.40 , 517.79 342.79 , 517.79 342.18 , 517.79 341.57 , 517.79 340.96 , 517.79 340.34 , 517.79 339.73 , 517.79 339.12 , 517.79 338.51 , 517.79 337.90 , 517.79 337.29 , 517.79 336.67 , 517.79 336.06 , 517.79 335.45 , 517.79 334.84 , 517.79 334.23 , 517.79 333.62 , 517.79 333.01 , 517.79 332.39 , 517.79 331.78 , 517.79 331.17 , 517.79 330.56 , 517.79 329.95 , 517.79 329.34 , 517.79 328.72 , 517.79 328.11 , 517.79 327.50 , 517.79 326.89 , 517.79 326.28 , 517.79 325.67 , 517.79 325.05 , 517.79 324.44 , 517.79 323.83 , 517.79 323.22 , 517.79 322.61 , 517.79 322.00 , 517.79 321.39 , 517.79 320.77 , 517.79 320.16 , 517.79 319.55 , 517.79 318.94 , 517.79 318.33 , 517.79 317.72 , 517.79 317.10 , 517.79 316.49 , 517.79 315.88 , 517.79 315.27 , 517.79 314.66 , 517.79 314.05 , 517.79 313.44 , 517.79 312.82 , 517.79 312.21 , 517.79 311.60 , 517.79 310.99 , 517.79 310.38 , 517.79 309.77 , 517.79 309.15 , 517.79 308.54 , 517.79 307.93 , 517.79 307.32 , 517.79 306.71 , 517.79 306.10 , 517.79 305.48 , 517.79 304.87 , 517.79 304.26 , 517.79 303.65 , 517.79 303.04 , 517.79 302.43 , 517.79 301.82 , 517.79 301.20 , 517.79 300.59 , 517.79 299.98 , 517.79 299.37 , 517.79 298.76 , 517.79 298.15 , 517.79 297.53 , 517.79 296.92 , 517.79 296.31 , 517.79 295.70 , 517.79 295.09 , 517.79 294.48 , 517.79 293.86 , 517.79 293.25 , 517.79 292.64 , 517.79 292.03 , 517.79 291.42 , 517.79 290.81 , 517.79 290.20 , 517.79 289.58 , 517.79 288.97 , 517.79 288.36 , 517.79 287.75 , 517.79 287.14 , 517.79 286.53 , 517.79 285.91 , 517.79 285.30 , 517.79 284.69 , 517.79 284.08 , 517.79 283.47 , 517.79 282.86 , 517.79 282.24 , 517.79 281.63 , 517.79 281.02 , 517.79 280.41 , 517.79 279.80 , 517.79 279.19 , 517.79 278.58 , 517.79 277.96 , 517.79 277.35 , 517.79 276.74 , 517.79 276.13 , 517.79 275.52 , 517.79 274.91 , 517.79 274.29 , 517.79 273.68 , 517.79 273.07 , 517.79 272.46 , 517.79 271.85 , 517.79 271.24 , 517.79 270.62 , 517.79 270.01 , 517.79 269.40 , 517.79 268.79 , 517.79 268.18 , 517.79 267.57 , 517.79 266.96 , 517.79 266.34 , 517.79 265.73 , 517.79 265.12 , 517.79 264.51 , 517.79 263.90 , 517.79 263.29 , 517.79 262.67 , 517.79 262.06 , 517.79 261.45 , 517.79 260.84 , 517.79 260.23 , 517.79 259.62 , 517.79 259.00 , 517.79 258.39 , 517.79 257.78 , 517.79 257.17 , 517.79 256.56 , 517.79 255.95 , 517.79 255.34 , 517.79 254.72 , 517.79 254.11 , 517.79 253.50 , 517.79 252.89 , 517.79 252.28 , 517.79 251.67 , 517.79 251.05 , 517.79 250.44 , 517.79 249.83 , 517.79 249.22 , 517.79 248.61 , 517.79 248.00 , 517.79 247.38 , 517.79 246.77 , 517.79 246.16 , 517.79 245.55 , 517.79 244.94 , 517.79 244.33 , 517.79 243.72 , 517.79 243.10 , 517.79 242.49 , 517.79 241.88 , 517.79 241.27 , 517.79 240.66 , 517.79 240.05 , 517.79 239.43 , 517.79 238.82 , 517.79 238.21 , 517.79 237.60 , 517.79 236.99 , 517.79 236.38 , 517.79 235.76 , 517.79 235.15 , 517.79 234.54 , 517.79 233.93 , 517.79 233.32 , 517.79 232.71 , 517.79 232.10 , 517.79 231.48 , 517.79 230.87 , 517.79 230.26 , 517.79 229.65 , 517.79 229.04 , 517.79 228.43 , 517.79 227.81 , 517.79 227.20 , 517.79 226.59 , 517.79 225.98 , 517.79 225.37 , 517.79 224.76 , 517.79 224.15 , 517.79 223.53 , 517.79 222.92 , 517.79 222.31 , 517.79 221.70 , 517.79 221.09 , 517.79 220.48 , 517.79 219.86 , 517.79 219.25 , 517.79 218.64 , 517.79 218.03 , 517.79 217.42 , 517.79 216.81 , 517.79 216.19 , 517.79 215.58 , 517.79 214.97 , 517.79 214.36 , 517.79 213.75 , 517.79 213.14 , 517.79 212.53 , 517.79 211.91 , 517.79 211.30 , 517.79 210.69 , 517.79 210.08 , 517.79 209.47 , 517.79 208.86 , 517.79 208.24 , 517.79 207.63 , 517.79 207.02 , 517.79 206.41 , 517.79 205.80 , 517.79 205.19 , 517.79 204.57 , 517.79 203.96 , 517.79 203.35 , 517.79 202.74 , 517.79 202.13 , 517.79 201.52 , 517.79 200.91 , 517.79 200.29 , 517.79 199.68 , 517.79 199.07 , 517.79 198.46 , 517.79 197.85 , 517.79 197.24 , 517.79 196.62 , 517.79 196.01 , 517.79 195.40 , 517.79 194.79 , 517.79 194.18 , 517.79 193.57 , 517.79 192.95 , 517.79 192.34 , 517.79 191.73 , 517.79 191.12 , 517.79 190.51 , 517.79 189.90 , 517.79 189.29 , 517.79 188.67 , 517.79 188.06 , 517.79 187.45 , 517.79 186.84 , 517.79 186.23 , 517.79 185.62 , 517.79 185.00 , 517.79 184.39 , 517.79 183.78 , 517.79 183.17 , 517.79 182.56 , 517.79 181.95 , 517.79 181.33 , 517.79 180.72 , 517.79 180.11 , 517.79 179.50 , 517.79 178.89 , 517.79 178.28 , 517.79 177.67 , 517.79 177.05 , 517.79 176.44 , 517.79 175.83 , 517.79 175.22 , 517.79 174.61 , 517.79 174.00 , 517.79 173.38 , 517.79 172.77 , 517.79 172.16 , 517.79 171.55 , 517.79 170.94 , 517.79 170.33 , 517.79 169.71 , 517.79 169.10 , 517.79 168.49 , 517.79 167.88 , 517.79 167.27 , 517.79 166.66 , 517.79 166.05 , 517.79 165.43 , 517.79 164.82 , 517.79 164.21 , 517.79 163.60 , 517.79 162.99 , 517.79 162.38 , 517.79 161.76 , 517.79 161.15 , 517.79 160.54 , 517.79 159.93 , 517.79 159.32 , 517.79 158.71 , 517.79 158.09 , 517.79 157.48 , 517.79 156.87 , 517.79 156.26 , 517.79 155.65 , 517.79 155.04 , 517.79 154.43 , 517.79 153.81 , 517.79 153.20 , 517.79 152.59 , 517.79 151.98 , 517.79 151.37 , 517.79 150.76 , 517.79 150.14 , 517.79 149.53 , 517.79 148.92 , 517.79 148.31 , 517.79 147.70 , 517.79 147.09 , 517.79 146.48 , 517.79 145.86 , 517.79 145.25 , 517.79 144.64 , 517.79 144.03 , 517.79 143.42 , 517.79 142.81 , 517.79 142.19 , 517.79 141.58 , 517.79 140.97 , 517.79 140.36 , 517.79 139.75 , 517.79 139.14 , 517.79 138.52 , 517.79 137.91 , 517.79 137.30 , 517.79 136.69 , 517.79 136.08 , 517.79 135.47 , 517.79 134.86 , 517.79 134.24 , 517.79 133.63 , 517.79 133.02 , 517.79 132.41 , 517.79 131.80 , 517.79 131.19 , 517.79 130.57 , 517.79 129.96 , 517.79 129.35 , 517.79 128.74 , 517.79 128.13 , 517.79 127.52 , 517.79 126.90 , 517.79 126.29 , 517.79 125.68 , 517.79 125.07 , 517.79 124.46 , 517.79 123.85 , 517.79 123.24 , 517.79 122.62 , 517.79 122.01 , 517.79 121.40 , 517.79 120.79 , 517.79 120.18 , 517.79 119.57 , 517.79 118.95 , 517.79 118.34 , 517.79 117.73 , 517.79 117.12 , 517.79 116.51 , 517.79 115.90 , 517.79 115.28 , 517.79 114.67 , 517.79 114.06 , 517.79 113.45 , 517.79 112.84 , 517.79 112.23 , 517.79 111.62 , 517.79 111.00 , 517.79 110.39 , 517.79 109.78 , 517.79 109.17 , 517.79 108.56 , 517.79 107.95 , 517.79 107.33 , 517.79 106.72 , 517.79 106.11 , 517.79 105.50 , 517.79 104.89 , 517.79 104.28 , 517.79 103.66 , 517.79 103.05 , 517.79 102.44 , 517.79 101.83 , 517.79 101.22 , 517.79 100.61 , 517.79 100.00 , 517.79 99.38 , 517.79 98.77 , 517.79 98.16 , 517.79 97.55 , 517.79 96.94 , 517.79 96.33 , 517.79 95.71 , 517.79 95.10 , 517.79 94.49 , 517.79 93.88 , 517.79 93.27 , 517.79 92.66 , 517.79 92.04 , 517.79 91.43 , 517.79 90.82 , 517.79 90.21 , 517.79 89.60 , 517.79 88.99 , 517.79 88.38 , 517.79 87.76 , 517.79 87.15 , 517.79 86.54 , 517.79 85.93 , 517.79 85.32 , 517.79 84.71 , 517.79 84.09 , 517.79 83.48 , 517.79 82.87 , 517.79 82.26 , 517.79 81.65 , 517.79 81.04 , 517.79 80.42 , 517.79 79.81 , 517.79 79.20 , 517.79 78.59 , 517.79 77.98 , 517.79 77.37 , 517.79 76.76 , 517.79 76.14 , 517.79 75.53 , 517.79 74.92 , 517.79 74.31 , 517.79 73.70 , 517.79 73.09 , 517.79 72.47 , 517.79 71.86 , 517.79 71.25 , 517.79 70.64 , 517.79 70.03 , 517.79 69.42 , 517.79 68.80 , 517.79 68.19 , 517.79 67.58 , 517.79 66.97 , 517.79 66.36 , 517.79 65.75 , 517.79 65.14 , 517.79 64.52 , 517.79 63.91 , 517.79 63.30 , 517.79 62.69 , 517.79 62.08 , 517.79 61.47 , 517.79 60.85 , 517.79 60.24 , 517.79 59.63 , 517.79 59.02 , 517.79 " style="stroke-width:2;stroke:#00FF00;fill:#00FF00;stroke-opacity:0.401575;fill-opacity:0.401575" />
<text transform="translate(302.02,517.79)"  style="font-size:10" >|</text>
<text transform="translate(148.00,517.79)"  style="font-size:10" >|</text>
<text transform="translate(172.48,517.79)"  style="font-size:10" >|</text>
<text transform="translate(159.08,517.79)"  style="font-size:10" >|</text>
<text transform="translate(285.41,517.79)"  style="font-size:10" >|</text>
<text transform="translate(291.02,517.79)"  style="font-size:10" >|</text>
<text transform="translate(148.65,517.79)"  style="font-size:10" >|</text>
<text transform="translate(142.66,517.79)"  style="font-size:10" >|</text>
<text transform="translate(152.57,517.79)"  style="font-size:10" >|</text>
<text transform="translate(170.36,517.79)"  style="font-size:10" >|</text>
<text transform="translate(117.54,517.79)"  style="font-size:10" >|</text>
<text transform="translate(154.48,517.79)"  style="font-size:10" >|</text>
<polygon points="417.64 , 517.09 418.16 , 517.04 418.67 , 516.98 419.19 , 516.93 419.70 , 516.86 420.22 , 516.80 420.73 , 516.73 421.24 , 516.66 421.76 , 516.58 422.27 , 516.50 422.79 , 516.41 423.30 , 516.32 423.81 , 516.22 424.33 , 516.12 424.84 , 516.01 425.36 , 515.89 425.87 , 515.77 426.38 , 515.64 426.90 , 515.51 427.41 , 515.37 427.93 , 515.22 428.44 , 515.06 428.96 , 514.89 429.47 , 514.72 429.98 , 514.53 430.50 , 514.34 431.01 , 514.13 431.53 , 513.92 432.04 , 513.70 432.55 , 513.46 433.07 , 513.22 433.58 , 512.96 434.10 , 512.69 434.61 , 512.41 435.12 , 512.11 435.64 , 511.80 436.15 , 511.48 436.67 , 511.14 437.18 , 510.79 437.69 , 510.42 438.21 , 510.04 438.72 , 509.64 439.24 , 509.23 439.75 , 508.80 440.27 , 508.34 440.78 , 507.88 441.29 , 507.39 441.81 , 506.89 442.32 , 506.36 442.84 , 505.82 443.35 , 505.26 443.86 , 504.67 444.38 , 504.06 444.89 , 503.44 445.41 , 502.79 445.92 , 502.12 446.43 , 501.42 446.95 , 500.70 447.46 , 499.96 447.98 , 499.19 448.49 , 498.41 449.00 , 497.59 449.52 , 496.75 450.03 , 495.88 450.55 , 494.99 451.06 , 494.07 451.58 , 493.12 452.09 , 492.15 452.60 , 491.15 453.12 , 490.12 453.63 , 489.07 454.15 , 487.97 454.66 , 486.86 455.17 , 485.72 455.69 , 484.54 456.20 , 483.35 456.72 , 482.11 457.23 , 480.85 457.74 , 479.56 458.26 , 478.23 458.77 , 476.89 459.29 , 475.50 459.80 , 474.09 460.31 , 472.64 460.83 , 471.16 461.34 , 469.66 461.86 , 468.12 462.37 , 466.55 462.89 , 464.95 463.40 , 463.32 463.91 , 461.66 464.43 , 459.96 464.94 , 458.24 465.46 , 456.47 465.97 , 454.69 466.48 , 452.87 467.00 , 451.01 467.51 , 449.14 468.03 , 447.22 468.54 , 445.28 469.05 , 443.30 469.57 , 441.29 470.08 , 439.27 470.60 , 437.19 471.11 , 435.10 471.62 , 432.97 472.14 , 430.81 472.65 , 428.63 473.17 , 426.41 473.68 , 424.16 474.20 , 421.89 474.71 , 419.58 475.22 , 417.26 475.74 , 414.89 476.25 , 412.51 476.77 , 410.09 477.28 , 407.65 477.79 , 405.19 478.31 , 402.68 478.82 , 400.17 479.34 , 397.62 479.85 , 395.04 480.36 , 392.45 480.88 , 389.82 481.39 , 387.18 481.91 , 384.50 482.42 , 381.81 482.93 , 379.10 483.45 , 376.36 483.96 , 373.60 484.48 , 370.82 484.99 , 368.02 485.51 , 365.21 486.02 , 362.37 486.53 , 359.52 487.05 , 356.64 487.56 , 353.75 488.08 , 350.85 488.59 , 347.93 489.10 , 345.00 489.62 , 342.06 490.13 , 339.10 490.65 , 336.14 491.16 , 333.16 491.67 , 330.18 492.19 , 327.18 492.70 , 324.18 493.22 , 321.18 493.73 , 318.17 494.24 , 315.16 494.76 , 312.15 495.27 , 309.14 495.79 , 306.13 496.30 , 303.12 496.82 , 300.12 497.33 , 297.12 497.84 , 294.13 498.36 , 291.15 498.87 , 288.18 499.39 , 285.21 499.90 , 282.27 500.41 , 279.34 500.93 , 276.42 501.44 , 273.53 501.96 , 270.64 502.47 , 267.79 502.98 , 264.96 503.50 , 262.15 504.01 , 259.37 504.53 , 256.61 505.04 , 253.89 505.56 , 251.20 506.07 , 248.54 506.58 , 245.92 507.10 , 243.32 507.61 , 240.78 508.13 , 238.27 508.64 , 235.80 509.15 , 233.38 509.67 , 230.99 510.18 , 228.66 510.70 , 226.37 511.21 , 224.14 511.72 , 221.95 512.24 , 219.80 512.75 , 217.73 513.27 , 215.69 513.78 , 213.73 514.29 , 211.81 514.81 , 209.94 515.32 , 208.15 515.84 , 206.39 516.35 , 204.72 516.87 , 203.10 517.38 , 201.54 517.89 , 200.05 518.41 , 198.60 518.92 , 197.25 519.44 , 195.95 519.95 , 194.71 520.46 , 193.54 520.98 , 192.42 521.49 , 191.39 522.01 , 190.41 522.52 , 189.50 523.03 , 188.67 523.55 , 187.87 524.06 , 187.17 524.58 , 186.52 525.09 , 185.94 525.60 , 185.43 526.12 , 184.95 526.63 , 184.58 527.15 , 184.25 527.66 , 183.98 528.18 , 183.78 528.69 , 183.62 529.20 , 183.56 529.72 , 183.52 530.23 , 183.56 530.75 , 183.65 531.26 , 183.78 531.77 , 184.00 532.29 , 184.24 532.80 , 184.55 533.32 , 184.91 533.83 , 185.30 534.34 , 185.76 534.86 , 186.25 535.37 , 186.80 535.89 , 187.39 536.40 , 188.01 536.91 , 188.69 537.43 , 189.39 537.94 , 190.15 538.46 , 190.93 538.97 , 191.74 539.49 , 192.60 540.00 , 193.47 540.51 , 194.39 541.03 , 195.33 541.54 , 196.29 542.06 , 197.29 542.57 , 198.29 543.08 , 199.34 543.60 , 200.39 544.11 , 201.46 544.63 , 202.56 545.14 , 203.66 545.65 , 204.79 546.17 , 205.92 546.68 , 207.07 547.20 , 208.22 547.71 , 209.38 548.22 , 210.56 548.74 , 211.73 549.25 , 212.92 549.77 , 214.10 550.28 , 215.29 550.80 , 216.48 551.31 , 217.67 551.82 , 218.85 552.34 , 220.04 552.85 , 221.22 553.37 , 222.40 553.88 , 223.57 554.39 , 224.74 554.91 , 225.90 555.42 , 227.05 555.94 , 228.19 556.45 , 229.33 556.96 , 230.45 557.48 , 231.56 557.99 , 232.67 558.51 , 233.76 559.02 , 234.84 559.53 , 235.90 560.05 , 236.96 560.56 , 238.00 561.08 , 239.02 561.59 , 240.04 562.11 , 241.04 562.62 , 242.02 563.13 , 243.00 563.65 , 243.95 564.16 , 244.89 564.68 , 245.82 565.19 , 246.73 565.70 , 247.63 566.22 , 248.52 566.73 , 249.39 567.25 , 250.24 567.76 , 251.09 568.27 , 251.92 568.79 , 252.73 569.30 , 253.54 569.82 , 254.33 570.33 , 255.11 570.84 , 255.87 571.36 , 256.63 571.87 , 257.38 572.39 , 258.11 572.90 , 258.84 573.42 , 259.55 573.93 , 260.26 574.44 , 260.96 574.96 , 261.65 575.47 , 262.34 575.99 , 263.02 576.50 , 263.69 577.01 , 264.37 577.53 , 265.03 578.04 , 265.70 578.56 , 266.36 579.07 , 267.02 579.58 , 267.68 580.10 , 268.34 580.61 , 269.00 581.13 , 269.66 581.64 , 270.33 582.16 , 271.00 582.67 , 271.68 583.18 , 272.36 583.70 , 273.04 584.21 , 273.74 584.73 , 274.44 585.24 , 275.16 585.75 , 275.88 586.27 , 276.61 586.78 , 277.36 587.30 , 278.11 587.81 , 278.89 588.32 , 279.67 588.84 , 280.48 589.35 , 281.30 589.87 , 282.13 590.38 , 282.99 590.89 , 283.86 591.41 , 284.76 591.92 , 285.68 592.44 , 286.61 592.95 , 287.58 593.47 , 288.56 593.98 , 289.57 594.49 , 290.60 595.01 , 291.66 595.52 , 292.75 596.04 , 293.85 596.55 , 295.00 597.06 , 296.17 597.58 , 297.37 598.09 , 298.60 598.61 , 299.84 599.12 , 301.14 599.63 , 302.46 600.15 , 303.81 600.66 , 305.19 601.18 , 306.59 601.69 , 308.05 602.20 , 309.52 602.72 , 311.03 603.23 , 312.58 603.75 , 314.15 604.26 , 315.76 604.78 , 317.40 605.29 , 319.08 605.80 , 320.79 606.32 , 322.52 606.83 , 324.30 607.35 , 326.10 607.86 , 327.94 608.37 , 329.80 608.89 , 331.69 609.40 , 333.63 609.92 , 335.58 610.43 , 337.57 610.94 , 339.59 611.46 , 341.63 611.97 , 343.71 612.49 , 345.80 613.00 , 347.93 613.51 , 350.07 614.03 , 352.24 614.54 , 354.44 615.06 , 356.65 615.57 , 358.89 616.09 , 361.15 616.60 , 363.42 617.11 , 365.72 617.63 , 368.02 618.14 , 370.35 618.66 , 372.68 619.17 , 375.03 619.68 , 377.39 620.20 , 379.76 620.71 , 382.14 621.23 , 384.53 621.74 , 386.92 622.25 , 389.31 622.77 , 391.71 623.28 , 394.11 623.80 , 396.51 624.31 , 398.91 624.82 , 401.30 625.34 , 403.70 625.85 , 406.08 626.37 , 408.46 626.88 , 410.83 627.40 , 413.19 627.91 , 415.54 628.42 , 417.87 628.94 , 420.19 629.45 , 422.50 629.97 , 424.79 630.48 , 427.07 630.99 , 429.32 631.51 , 431.55 632.02 , 433.76 632.54 , 435.95 633.05 , 438.12 633.56 , 440.26 634.08 , 442.38 634.59 , 444.47 635.11 , 446.53 635.62 , 448.58 636.13 , 450.58 636.65 , 452.56 637.16 , 454.50 637.68 , 456.42 638.19 , 458.31 638.71 , 460.15 639.22 , 461.98 639.73 , 463.76 640.25 , 465.51 640.76 , 467.24 641.28 , 468.91 641.79 , 470.57 642.30 , 472.18 642.82 , 473.76 643.33 , 475.31 643.85 , 476.81 644.36 , 478.30 644.87 , 479.73 645.39 , 481.13 645.90 , 482.50 646.42 , 483.83 646.93 , 485.14 647.44 , 486.39 647.96 , 487.62 648.47 , 488.82 648.99 , 489.97 649.50 , 491.11 650.02 , 492.19 650.53 , 493.26 651.04 , 494.28 651.56 , 495.28 652.07 , 496.25 652.59 , 497.17 653.10 , 498.08 653.61 , 498.94 654.13 , 499.78 654.64 , 500.60 655.16 , 501.38 655.67 , 502.14 656.18 , 502.86 656.70 , 503.56 657.21 , 504.24 657.73 , 504.88 658.24 , 505.51 658.75 , 506.11 659.27 , 506.68 659.78 , 507.24 660.30 , 507.77 660.81 , 508.28 661.33 , 508.76 661.84 , 509.23 662.35 , 509.68 662.87 , 510.10 663.38 , 510.51 663.90 , 510.90 664.41 , 511.27 664.92 , 511.63 665.44 , 511.96 665.95 , 512.29 666.47 , 512.59 666.98 , 512.89 667.49 , 513.17 668.01 , 513.43 668.52 , 513.68 669.04 , 513.92 669.55 , 514.15 670.07 , 514.36 670.58 , 514.57 671.09 , 514.76 671.61 , 514.94 672.12 , 515.12 672.64 , 515.28 673.15 , 515.44 673.66 , 515.59 674.18 , 515.72 674.69 , 515.85 675.21 , 515.98 675.72 , 516.09 676.23 , 516.21 676.75 , 516.31 677.26 , 516.40 677.78 , 516.50 678.29 , 516.58 678.80 , 516.66 679.32 , 516.74 679.83 , 516.81 680.35 , 516.88 680.35 , 517.79 679.83 , 517.79 679.32 , 517.79 678.80 , 517.79 678.29 , 517.79 677.78 , 517.79 677.26 , 517.79 676.75 , 517.79 676.23 , 517.79 675.72 , 517.79 675.21 , 517.79 674.69 , 517.79 674.18 , 517.79 673.66 , 517.79 673.15 , 517.79 672.64 , 517.79 672.12 , 517.79 671.61 , 517.79 671.09 , 517.79 670.58 , 517.79 670.07 , 517.79 669.55 , 517.79 669.04 , 517.79 668.52 , 517.79 668.01 , 517.79 667.49 , 517.79 666.98 , 517.79 666.47 , 517.79 665.95 , 517.79 665.44 , 517.79 664.92 , 517.79 664.41 , 517.79 663.90 , 517.79 663.38 , 517.79 662.87 , 517.79 662.35 , 517.79 661.84 , 517.79 661.33 , 517.79 660.81 , 517.79 660.30 , 517.79 659.78 , 517.79 659.27 , 517.79 658.75 , 517.79 658.24 , 517.79 657.73 , 517.79 657.21 , 517.79 656.70 , 517.79 656.18 , 517.79 655.67 , 517.79 655.16 , 517.79 654.64 , 517.79 654.13 , 517.79 653.61 , 517.79 653.10 , 517.79 652.59 , 517.79 652.07 , 517.79 651.56 , 517.79 651.04 , 517.79 650.53 , 517.79 650.02 , 517.79 649.50 , 517.79 648.99 , 517.79 648.47 , 517.79 647.96 , 517.79 647.44 , 517.79 646.93 , 517.79 646.42 , 517.79 645.90 , 517.79 645.39 , 517.79 644.87 , 517.79 644.36 , 517.79 643.85 , 517.79 643.33 , 517.79 642.82 , 517.79 642.30 , 517.79 641.79 , 517.79 641.28 , 517.79 640.76 , 517.79 640.25 , 517.79 639.73 , 517.79 639.22 , 517.79 638.71 , 517.79 638.19 , 517.79 637.68 , 517.79 637.16 , 517.79 636.65 , 517.79 636.13 , 517.79 635.62 , 517.79 635.11 , 517.79 634.59 , 517.79 634.08 , 517.79 633.56 , 517.79 633.05 , 517.79 632.54 , 517.79 632.02 , 517.79 631.51 , 517.79 630.99 , 517.79 630.48 , 517.79 629.97 , 517.79 629.45 , 517.79 628.94 , 517.79 628.42 , 517.79 627.91 , 517.79 627.40 , 517.79 626.88 , 517.79 626.37 , 517.79 625.85 , 517.79 625.34 , 517.79 624.82 , 517.79 624.31 , 517.79 623.80 , 517.79 623.28 , 517.79 622.77 , 517.79 622.25 , 517.79 621.74 , 517.79 621.23 , 517.79 620.71 , 517.79 620.20 , 517.79 619.68 , 517.79 619.17 , 517.79 618.66 , 517.79 618.14 , 517.79 617.63 , 517.79 617.11 , 517.79 616.60 , 517.79 616.09 , 517.79 615.57 , 517.79 615.06 , 517.79 614.54 , 517.79 614.03 , 517.79 613.51 , 517.79 613.00 , 517.79 612.49 , 517.79 611.97 , 517.79 611.46 , 517.79 610.94 , 517.79 610.43 , 517.79 609.92 , 517.79 609.40 , 517.79 608.89 , 517.79 608.37 , 517.79 607.86 , 517.79 607.35 , 517.79 606.83 , 517.79 606.32 , 517.79 605.80 , 517.79 605.29 , 517.79 604.78 , 517.79 604.26 , 517.79 603.75 , 517.79 603.23 , 517.79 602.72 , 517.79 602.20 , 517.79 601.69 , 517.79 601.18 , 517.79 600.66 , 517.79 600.15 , 517.79 599.63 , 517.79 599.12 , 517.79 598.61 , 517.79 598.09 , 517.79 597.58 , 517.79 597.06 , 517.79 596.55 , 517.79 596.04 , 517.79 595.52 , 517.79 595.01 , 517.79 594.49 , 517.79 593.98 , 517.79 593.47 , 517.79 592.95 , 517.79 592.44 , 517.79 591.92 , 517.79 591.41 , 517.79 590.89 , 517.79 590.38 , 517.79 589.87 , 517.79 589.35 , 517.79 588.84 , 517.79 588.32 , 517.79 587.81 , 517.79 587.30 , 517.79 586.78 , 517.79 586.27 , 517.79 585.75 , 517.79 585.24 , 517.79 584.73 , 517.79 584.21 , 517.79 583.70 , 517.79 583.18 , 517.79 582.67 , 517.79 582.16 , 517.79 581.64 , 517.79 581.13 , 517.79 580.61 , 517.79 580.10 , 517.79 579.58 , 517.79 579.07 , 517.79 578.56 , 517.79 578.04 , 517.79 577.53 , 517.79 577.01 , 517.79 576.50 , 517.79 575.99 , 517.79 575.47 , 517.79 574.96 , 517.79 574.44 , 517.79 573.93 , 517.79 573.42 , 517.79 572.90 , 517.79 572.39 , 517.79 571.87 , 517.79 571.36 , 517.79 570.84 , 517.79 570.33 , 517.79 569.82 , 517.79 569.30 , 517.79 568.79 , 517.79 568.27 , 517.79 567.76 , 517.79 567.25 , 517.79 566.73 , 517.79 566.22 , 517.79 565.70 , 517.79 565.19 , 517.79 564.68 , 517.79 564.16 , 517.79 563.65 , 517.79 563.13 , 517.79 562.62 , 517.79 562.11 , 517.79 561.59 , 517.79 561.08 , 517.79 560.56 , 517.79 560.05 , 517.79 559.53 , 517.79 559.02 , 517.79 558.51 , 517.79 557.99 , 517.79 557.48 , 517.79 556.96 , 517.79 556.45 , 517.79 555.94 , 517.79 555.42 , 517.79 554.91 , 517.79 554.39 , 517.79 553.88 , 517.79 553.37 , 517.79 552.85 , 517.79 552.34 , 517.79 551.82 , 517.79 551.31 , 517.79 550.80 , 517.79 550.28 , 517.79 549.77 , 517.79 549.25 , 517.79 548.74 , 517.79 548.22 , 517.79 547.71 , 517.79 547.20 , 517.79 546.68 , 517.79 546.17 , 517.79 545.65 , 517.79 545.14 , 517.79 544.63 , 517.79 544.11 , 517.79 543.60 , 517.79 543.08 , 517.79 542.57 , 517.79 542.06 , 517.79 541.54 , 517.79 541.03 , 517.79 540.51 , 517.79 540.00 , 517.79 539.49 , 517.79 538.97 , 517.79 538.46 , 517.79 537.94 , 517.79 537.43 , 517.79 536.91 , 517.79 536.40 , 517.79 535.89 , 517.79 535.37 , 517.79 534.86 , 517.79 534.34 , 517.79 533.83 , 517.79 533.32 , 517.79 532.80 , 517.79 532.29 , 517.79 531.77 , 517.79 531.26 , 517.79 530.75 , 517.79 530.23 , 517.79 529.72 , 517.79 529.20 , 517.79 528.69 , 517.79 528.18 , 517.79 527.66 , 517.79 527.15 , 517.79 526.63 , 517.79 526.12 , 517.79 525.60 , 517.79 525.09 , 517.79 524.58 , 517.79 524.06 , 517.79 523.55 , 517.79 523.03 , 517.79 522.52 , 517.79 522.01 , 517.79 521.49 , 517.79 520.98 , 517.79 520.46 , 517.79 519.95 , 517.79 519.44 , 517.79 518.92 , 517.79 518.41 , 517.79 517.89 , 517.79 517.38 , 517.79 516.87 , 517.79 516.35 , 517.79 515.84 , 517.79 515.32 , 517.79 514.81 , 517.79 514.29 , 517.79 513.78 , 517.79 513.27 , 517.79 512.75 , 517.79 512.24 , 517.79 511.72 , 517.79 511.21 , 517.79 510.70 , 517.79 510.18 , 517.79 509.67 , 517.79 509.15 , 517.79 508.64 , 517.79 508.13 , 517.79 507.61 , 517.79 507.10 , 517.79 506.58 , 517.79 506.07 , 517.79 505.56 , 517.79 505.04 , 517.79 504.53 , 517.79 504.01 , 517.79 503.50 , 517.79 502.98 , 517.79 502.47 , 517.79 501.96 , 517.79 501.44 , 517.79 500.93 , 517.79 500.41 , 517.79 499.90 , 517.79 499.39 , 517.79 498.87 , 517.79 498.36 , 517.79 497.84 , 517.79 497.33 , 517.79 496.82 , 517.79 496.30 , 517.79 495.79 , 517.79 495.27 , 517.79 494.76 , 517.79 494.24 , 517.79 493.73 , 517.79 493.22 , 517.79 492.70 , 517.79 492.19 , 517.79 491.67 , 517.79 491.16 , 517.79 490.65 , 517.79 490.13 , 517.79 489.62 , 517.79 489.10 , 517.79 488.59 , 517.79 488.08 , 517.79 487.56 , 517.79 487.05 , 517.79 486.53 , 517.79 486.02 , 517.79 485.51 , 517.79 484.99 , 517.79 484.48 , 517.79 483.96 , 517.79 483.45 , 517.79 482.93 , 517.79 482.42 , 517.79 481.91 , 517.79 481.39 , 517.79 480.88 , 517.79 480.36 , 517.79 479.85 , 517.79 479.34 , 517.79 478.82 , 517.79 478.31 , 517.79 477.79 , 517.79 477.28 , 517.79 476.77 , 517.79 476.25 , 517.79 475.74 , 517.79 475.22 , 517.79 474.71 , 517.79 474.20 , 517.79 473.68 , 517.79 473.17 , 517.79 472.65 , 517.79 472.14 , 517.79 471.62 , 517.79 471.11 , 517.79 470.60 , 517.79 470.08 , 517.79 469.57 , 517.79 469.05 , 517.79 468.54 , 517.79 468.03 , 517.79 467.51 , 517.79 467.00 , 517.79 466.48 , 517.79 465.97 , 517.79 465.46 , 517.79 464.94 , 517.79 464.43 , 517.79 463.91 , 517.79 463.40 , 517.79 462.89 , 517.79 462.37 , 517.79 461.86 , 517.79 461.34 , 517.79 460.83 , 517.79 460.31 , 517.79 459.80 , 517.79 459.29 , 517.79 458.77 , 517.79 458.26 , 517.79 457.74 , 517.79 457.23 , 517.79 456.72 , 517.79 456.20 , 517.79 455.69 , 517.79 455.17 , 517.79 454.66 , 517.79 454.15 , 517.79 453.63 , 517.79 453.12 , 517.79 452.60 , 517.79 452.09 , 517.79 451.58 , 517.79 451.06 , 517.79 450.55 , 517.79 450.03 , 517.79 449.52 , 517.79 449.00 , 517.79 448.49 , 517.79 447.98 , 517.79 447.46 , 517.79 446.95 , 517.79 446.43 , 517.79 445.92 , 517.79 445.41 , 517.79 444.89 , 517.79 444.38 , 517.79 443.86 , 517.79 443.35 , 517.79 442.84 , 517.79 442.32 , 517.79 441.81 , 517.79 441.29 , 517.79 440.78 , 517.79 440.27 , 517.79 439.75 , 517.79 439.24 , 517.79 438.72 , 517.79 438.21 , 517.79 437.69 , 517.79 437.18 , 517.79 436.67 , 517.79 436.15 , 517.79 435.64 , 517.79 435.12 , 517.79 434.61 , 517.79 434.10 , 517.79 433.58 , 517.79 433.07 , 517.79 432.55 , 517.79 432.04 , 517.79 431.53 , 517.79 431.01 , 517.79 430.50 , 517.79 429.98 , 517.79 429.47 , 517.79 428.96 , 517.79 428.44 , 517.79 427.93 , 517.79 427.41 , 517.79 426.90 , 517.79 426.38 , 517.79 425.87 , 517.79 425.36 , 517.79 424.84 , 517.79 424.33 , 517.79 423.81 , 517.79 423.30 , 517.79 422.79 , 517.79 422.27 , 517.79 421.76 , 517.79 421.24 , 517.79 420.73 , 517.79 420.22 , 517.79 419.70 , 517.79 419.19 , 517.79 418.67 , 517.79 418.16 , 517.79 417.64 , 517.79 " style="stroke-width:2;stroke:#A020F0;fill:#A020F0;stroke-opacity:0.401575;fill-opacity:0.401575" />
<text transform="translate(581.96,517.79)"  style="font-size:10" >|</text>
<text transform="translate(478.95,517.79)"  style="font-size:10" >|</text>
<text transform="translate(512.43,517.79)"  style="font-size:10" >|</text>
<text transform="translate(571.58,517.79)"  style="font-size:10" >|</text>
<text transform="translate(608.05,517.79)"  style="font-size:10" >|</text>
<text transform="translate(600.29,517.79)"  style="font-size:10" >|</text>
<text transform="translate(540.22,517.79)"  style="font-size:10" >|</text>
<text transform="translate(556.74,517.79)"  style="font-size:10" >|</text>
<text transform="translate(537.65,517.79)"  style="font-size:10" >|</text>
<text transform="translate(517.60,517.79)"  style="font-size:10" >|</text>
<text transform="translate(517.62,517.79)"  style="font-size:10" >|</text>
<text transform="translate(500.59,517.79)"  style="font-size:10" >|</text>
<polygon points="670.98 , 34.17 670.98 , 59.17 705.20 , 59.17 705.20 , 34.17 " style="stroke-width:1;stroke:#000000;fill:#FFFFFF;stroke-opacity:1.000000;fill-opacity:0.000000" />
<rect x="675.98" y="40.42" width="4.00" height="4.17" style="stroke-width:1;stroke:#000000;fill:#00FF00;stroke-opacity:1.000000;fill-opacity:0.401575" />
<rect x="675.98" y="48.75" width="4.00" height="4.17" style="stroke-width:1;stroke:#000000;fill:#A020F0;stroke-opacity:1.000000;fill-opacity:0.401575" />
<text transform="translate(684.98,46.67)"  style="font-size:10" >EU</text>
<text transform="translate(684.98,55.00)"  style="font-size:10" >TW</text>
</svg>
